<svg xmlns="http://www.w3.org/2000/svg" viewBox="0 0 353.24 91.36"><defs><style>.cls-1{fill:#e7e7e7;}.cls-2{fill:#f8f8f8;}.cls-3{fill:#e2e2e2;}.cls-4{fill:#ccc;}.cls-5{fill:#eee;}</style></defs><g id="图层_2" data-name="图层 2"><g id="图层_1-2" data-name="图层 1"><g id="Layer0_0_FILL" data-name="Layer0 0 FILL"><path class="cls-1" d="M322.15,82.4c2.82-.14,4.62-1.72,5.42-4.75.28-3-.93-4.62-3.63-4.9-2.86.28-4.69,1.92-5.48,4.9-.38,3,.84,4.61,3.69,4.75m.39-2.19c-1.22,0-1.72-.89-1.52-2.56.4-1.6,1.24-2.46,2.5-2.56,1.17.1,1.68,1,1.52,2.56-.45,1.67-1.28,2.52-2.5,2.56m16.84-7.4a1.65,1.65,0,0,0-1.58,1.46l-1.95,10.35c-.16.88.18,1.35,1,1.44s1.27-.52,1.5-1.44l.54-3a3.52,3.52,0,0,0,2.26.76q3.81-.21,5.05-4.63c.35-3.16-.72-4.84-3.19-5a3.33,3.33,0,0,0-2.65,1.19,1,1,0,0,0-1-1.13m4.33,4.84c-.45,1.6-1.28,2.46-2.5,2.56s-1.73-.91-1.52-2.62c.4-1.56,1.23-2.4,2.49-2.5,1.16.15,1.67,1,1.53,2.56M166.05,73c-.57,0-1,.41-1.19,1.1s.12,1.09.77,1.09h.54L165.08,81c-.12.87.23,1.31,1.06,1.31a1.47,1.47,0,0,0,1.5-1.31l1.09-5.88h.76a1.29,1.29,0,0,0,1.37-1.09.87.87,0,0,0-.94-1.1h-.76l.27-1.52c.06-.87-.26-1.36-1-1.46a1.73,1.73,0,0,0-1.59,1.46L166.6,73h-.55m16.72,7.37q-2-.06-2-1.86h5.45a1.17,1.17,0,0,0,1.31-1.09c.14-2.8-1.1-4.35-3.72-4.63-2.86.28-4.68,1.92-5.45,4.9q-.66,4.63,3.87,4.75,3.69-.21,4.51-2a.93.93,0,0,0-.82-1.12,2.93,2.93,0,0,0-1.13.42,4.67,4.67,0,0,1-2,.61m-1.83-3.5a2.65,2.65,0,0,1,2.44-2c1.11,0,1.66.71,1.64,2h-4.08M146.14,81c-.13.87.23,1.31,1.06,1.31A1.44,1.44,0,0,0,148.66,81l.83-4.41a2.12,2.12,0,0,1,2-1.8c1,.1,1.43.7,1.31,1.8L152,81c-.1.87.24,1.31,1,1.31A1.54,1.54,0,0,0,154.54,81l.91-4.9c.27-2.11-.69-3.24-2.86-3.38a3.25,3.25,0,0,0-2.62,1,1,1,0,0,0-1-1,1.65,1.65,0,0,0-1.58,1.46L146.14,81M138.4,70.4c.06-.77-.33-1.22-1.19-1.37a1.79,1.79,0,0,0-1.64,1.37c-.06.92.31,1.4,1.13,1.47a1.81,1.81,0,0,0,1.7-1.47m-.85,3.87c.12-.87-.22-1.36-1-1.46A1.61,1.61,0,0,0,135,74.27L133.74,81c-.12.87.21,1.31,1,1.31A1.54,1.54,0,0,0,136.27,81l1.28-6.76m130.61.21c.26-1.11,0-1.67-.83-1.67a1.59,1.59,0,0,0-1.46,1.13,2.36,2.36,0,0,0-2.19-1.19c-2.7.28-4.42,1.92-5.15,4.9-.42,3,.69,4.61,3.35,4.75a3.77,3.77,0,0,0,2.59-1c0,.65.38,1,1.07,1s1.3-.53,1.46-1.58l1.16-6.28m-3.05,3.17c-.45,1.6-1.28,2.46-2.5,2.56s-1.72-.89-1.52-2.56c.41-1.6,1.24-2.46,2.5-2.56,1.17.1,1.68,1,1.52,2.56m28.05,2.13a1.73,1.73,0,0,0-1.65,1.37c-.1.79.29,1.21,1.16,1.25a1.58,1.58,0,0,0,1.58-1.25,1.11,1.11,0,0,0-1.09-1.37m-13.43-7a1.57,1.57,0,0,0-1.56,1.31L276.86,81c-.12.87.21,1.31,1,1.31A1.54,1.54,0,0,0,279.39,81l.73-3.93c.1-.69.71-1.25,1.83-1.67l.46-.12c.79-.29,1.22-.65,1.31-1.1.12-.83-.21-1.3-1-1.4a2.58,2.58,0,0,0-2,1.13c.08-.69-.25-1.07-1-1.13M218.25,79.3a2.93,2.93,0,0,0-1.13.42,4.67,4.67,0,0,1-2,.61q-2-.06-2-1.86h5.45a1.17,1.17,0,0,0,1.31-1.09c.14-2.8-1.1-4.35-3.72-4.63-2.86.28-4.68,1.92-5.45,4.9q-.66,4.63,3.87,4.75,3.69-.21,4.51-2a.93.93,0,0,0-.82-1.12m-.86-2.47h-4.08a2.65,2.65,0,0,1,2.44-2c1.11,0,1.66.71,1.64,2m-18.39-4a1.56,1.56,0,0,0-1.55,1.31L196.14,81c-.12.87.2,1.31,1,1.31A1.55,1.55,0,0,0,198.67,81l.73-3.93c.1-.69.71-1.25,1.82-1.67l.46-.12c.79-.29,1.23-.65,1.31-1.1.12-.83-.2-1.3-1-1.4a2.58,2.58,0,0,0-2,1.13c.09-.69-.25-1.07-1-1.13m30.36,6.64a1.44,1.44,0,0,0-1.25,1.15c0,1.06,1,1.66,3.17,1.8q3.32-.06,4.11-2.83c.22-1.14-.58-2.1-2.41-2.89-.91-.37-1.34-.71-1.28-1s.43-.63,1-.67a5.63,5.63,0,0,1,1.28.46,1.27,1.27,0,0,0,.85.3,1.44,1.44,0,0,0,1.25-1.18c.06-1-.88-1.62-2.83-1.8-2.23.14-3.56,1.14-4,3-.22,1.18.56,2.14,2.34,2.9,1,.36,1.4.68,1.34.94-.1.57-.47.82-1.12.76a2.9,2.9,0,0,1-1.43-.4,1.76,1.76,0,0,0-1.07-.48M246.14,73a1.35,1.35,0,0,0-1.19,1.1c-.14.73.11,1.09.76,1.09h.55L245.16,81c-.12.87.24,1.31,1.07,1.31A1.45,1.45,0,0,0,247.72,81l1.1-5.88h.76A1.29,1.29,0,0,0,251,74.06.87.87,0,0,0,250,73h-.77l.28-1.52c.06-.87-.27-1.36-1-1.46A1.72,1.72,0,0,0,247,71.44L246.69,73h-.55m62.61,2.19h.76a1.29,1.29,0,0,0,1.37-1.09c.08-.69-.23-1.06-.95-1.1h-.76l.28-1.52c.06-.87-.27-1.36-1-1.46a1.72,1.72,0,0,0-1.58,1.46L306.62,73h-.55a1.35,1.35,0,0,0-1.19,1.1c-.14.73.11,1.09.76,1.09h.55L305.09,81c-.12.87.24,1.31,1.07,1.31A1.45,1.45,0,0,0,307.65,81l1.1-5.88M174.3,16.9l.67-3.62c.09-1.14-.86-1.78-2.83-1.92-2.13,0-3.3.57-3.5,1.7l-.73,3.84h-6.64c-3.13-.14-4.9,1.29-5.33,4.29l-2.68,14.35h-1.92l3.26-17.33q.74-3.87-3.35-3.87H144.4c-2.82-.28-4.42,1.36-4.81,4.94L133.1,54c-.52,2.84.65,4.19,3.54,4h6.42a5.59,5.59,0,0,0,2.92-.85q-.18,4.5,4.08,3.44,7.62-1.74,15.93-10.72a79.11,79.11,0,0,0,9.75,10.93q2.4,1.92,5.2-.42c1.48-1.87,1.63-3.37.43-4.51q-9.54-7.5-11.36-13.7h12.18c1.48-.15,2.49-1.28,3-3.42.24-2-.35-3.08-1.77-3.22h-.85l2.77-14.77c.48-2.58-.69-3.87-3.53-3.87H174.3m-1.24,6.64h5.57l-2.26,12H170.8l2.26-12m-11.33,0h4.93l-2.25,12h-4.94l2.26-12m-9.72,30a8,8,0,0,1-1.12.43c-1.38.57-2.47,1.07-3.26,1.49l2.47-13.27h13.06Q160.09,49.46,152,53.53M142.27,52h-2.8l2.59-13.92h2.8L142.27,52M146,31.91h-2.8l2.07-11.14h2.81L146,31.91m82.8-11.57c1.46-.14,2.44-1.15,2.93-3,.2-1.85-.4-2.85-1.8-3H213.49a2.71,2.71,0,0,0-3,2.35L210.24,18H208.5l.73-3.84q.18-2.16-2.37-2.16a3.22,3.22,0,0,0-3.2,2.37L203,18h-5.57c-1.47.14-2.43,1.07-2.9,2.8-.2,1.85.41,2.84,1.83,3h5.57l-.67,3.44H195c-1.6.15-2.65,1.14-3.14,3-.2,1.84.48,2.85,2,3h6.22L196.9,50.31a6.32,6.32,0,0,1-1.37-3q1.31-4.73,2.1-9c.59-2.42-.12-3.55-2.13-3.41-1.69-.14-2.76,1.06-3.23,3.62A58.81,58.81,0,0,1,190.08,48q-1.16,3.63-4.05,11.12c-.37,2,.15,3.08,1.55,3.22a3.33,3.33,0,0,0,3.69-2.58,41.23,41.23,0,0,0,2.1-5.55A19.07,19.07,0,0,0,205.15,61q7,1.71,28.72,1.07a3.48,3.48,0,0,0,3.32-2.8c.48-1.85-.27-2.84-2.26-3q-17.6.44-23.69-.21-6.3-.63-9.77-2.8a1.35,1.35,0,0,0,.67-1.28l1.55-8.34h3.23a2.33,2.33,0,0,0,2.07-.86l-.92,4.94c-.77.28-1.62.64-2.55,1.06q-2.16,1.29-1.4,4,.48,1.95,4.11.89a77,77,0,0,0,8-2.8l-.43,2.34c-.16,1.58.61,2.45,2.31,2.59a3.36,3.36,0,0,0,3.26-2.59l.82-4.48h.43a6.41,6.41,0,0,0,1.71-.85,3.62,3.62,0,0,0,1.94-3.65c-.26-1.57-1.21-2.21-2.86-1.92l4.14-22h1.28m-21.37,3.2h1.73c1.77-.29,2.62-1.42,2.56-3.41q.77.42.21,0a1.44,1.44,0,0,0,1.25.21l-1.31,6.85h-5.14l.7-3.65M217.91,25l.88-4.69H222L221.11,25h-3.2M220,30.6l-.82,4.51H216l.82-4.51H220m-1.83,9.87-.76,4.05c-1.07.43-2.22.85-3.44,1.28l1-5.33h3.19m-7.39-7.28-1.13,6c0-.71-.6-1.07-1.74-1.07h-3l.94-4.9h4.94m22.41-4.29q-1.41-2.8-4.2-1.49-2.86,1.48-1.5,4.47c.29.88,1.32,4.09,3.11,9.66a71.39,71.39,0,0,1-7.55,8.34Q220.77,52,222.54,54c1.36,1.14,2.81,1,4.35-.46a22.93,22.93,0,0,0,5.3-5.33,27.37,27.37,0,0,1,.73,3,6,6,0,0,0,.19,1.28q.57,2.58,3.53,1.73a3.33,3.33,0,0,0,2.25-4.08c-.06-.42-.19-1.21-.39-2.34q-1-4.08-1.65-6.21A76.11,76.11,0,0,0,244,24c.91-3.29-.09-4.79-3-4.48H231.8c-1.45.14-2.4,1.06-2.87,2.77-.18,1.71.43,2.63,1.83,2.77H237c.71,0,1,.36.86,1.07-.94,2.72-1.93,5.37-3,7.94a14.81,14.81,0,0,0-.79-2.58c-.47-1.42-.74-2.28-.82-2.56m25.06-14.77c-2.84-.14-4.49,1.35-4.93,4.48L251,31.46c-.63,2.57.35,3.86,2.92,3.86-.54.57-1.28,1.42-2.19,2.56-2.54,2.86-4.33,4.86-5.39,6-1.77,1.71-2.26,3.21-1.49,4.51q2.13,2.34,4.66.21-2,3.84,2.4,4.26h13.92l-.52,2.81H245.35A3.23,3.23,0,0,0,242,58.44c-.35,1.86.4,2.87,2.25,3H288a3.79,3.79,0,0,0,3.77-3c.19-1.71-.72-2.63-2.71-2.77H271.9l.52-2.81H287a4,4,0,0,0,4-3.19c.21-1.85-.74-2.86-2.83-3H273.61l.51-2.77h15.41q3.45-.21,4.2-3.2c.23-1.86-.79-2.87-3-3H275.28l.43-2.35h13.76c3.13.15,4.94-1.5,5.45-4.93l2.29-12.21q.94-4-3.75-4H258.29m32.64,5.57-1.85,9.84H257.31l1.86-9.84h31.76m-30.2,15.62h8.34l-.43,2.35H259l1.74-2.35m-7,11.33a3.42,3.42,0,0,0-2.47.46l3.2-3.23h13.07L267,46.65H253.69M325.22,42a3,3,0,0,0,2.07-3.23,48.11,48.11,0,0,0-2.86-8.55q-.94-1.92-3.23-1.07-2.58,1.28-2.1,3.2A43.31,43.31,0,0,1,322,40.9c.51,1.13,1.59,1.49,3.23,1.06m-9,8.13c-2.66,2.87-4.27,4.58-4.81,5.15-1,1.28-.95,2.41,0,3.41a3.32,3.32,0,0,0,3.89-.43Q318,56.3,325.5,48.39a2.35,2.35,0,0,0-.22-3.44q-2.22-1.71-3.8-.22-.8.85-5.3,5.36m3.65-34.26H307c-1.6.15-2.66,1.21-3.17,3.2-.22,1.87.52,2.87,2.23,3h3.41L307.56,32.1h-3.84c-1.46.14-2.43,1.14-2.92,3-.24,2,.34,3.06,1.77,3.2h3.83l-2.22,11.78a28.94,28.94,0,0,1-3.08,1.71c-1.44.85-2.49,1.5-3.16,2q-2,1.7-.89,3.62a3.24,3.24,0,0,0,3.9.85,106,106,0,0,0,15.14-8.77q2.49-5.36-3-4.5c-.16.14-.89.64-2.19,1.49l1.52-8.13h3.66c1.29-.14,2.21-1.21,2.74-3.2.2-1.87-.33-2.87-1.59-3h-3.65l1.89-10h3.22c1.45-.15,2.43-1.22,3-3.23.2-1.85-.4-2.84-1.8-3M353.21,24c.18-1.65-.28-2.63-1.37-2.93l-.43-.06H349.7c1.2-1.16,1.49-2.3.86-3.44a21.47,21.47,0,0,0-6.37-3.84q-3.9.44-3,3.84c1.74,1.3,3.25,2.45,4.5,3.44H339l1.15-6.21c.1-1.28-.78-1.92-2.65-1.92s-3.17.64-3.56,1.92L332.8,21h-9.44A3.58,3.58,0,0,0,320,24c-.22,2,.43,3.08,1.95,3.22h9.66L326.5,54.6c-.22,1.14-.77,1.7-1.64,1.7a4.3,4.3,0,0,1-1.62-.42,5.77,5.77,0,0,0-1.83-.43c-2.92,1-3.75,2.78-2.49,5.36q2,1.71,6.09,1.71,6.39.21,7.21-5.36L334.51,45A63.2,63.2,0,0,0,341,59.29q1.55,2,4.2.43,2.89-1.71,2-3.63c0-.57-.95-2.28-2.71-5.14A54.42,54.42,0,0,1,340,42a2.2,2.2,0,0,0,3.08-.42,60.57,60.57,0,0,0,6.63-9.23c.19-3.27-1.31-4.05-4.47-2.35-.39.57-1.15,1.57-2.29,3-2.43,3.15-3.76,4.93-4,5.36q-1.69-6.85-1.34-9.84l.22-1.28h12.39a2.84,2.84,0,0,0,1.62-.67A4.91,4.91,0,0,0,353.21,24Z"/></g><g id="a_0_Layer3_0_FILL" data-name="a 0 Layer3 0 FILL"><path class="cls-2" d="M48.72,89.07a1.44,1.44,0,0,0-.38,1,1.3,1.3,0,0,0,1.33,1.34A1.27,1.27,0,0,0,50.6,91,1.32,1.32,0,0,0,51,90a1.38,1.38,0,0,0-.41-1,1.33,1.33,0,0,0-.93-.35,1.43,1.43,0,0,0-1,.35m-25-7.3q4.57-.78,3.42-5.65A3.19,3.19,0,0,0,25,75.37a3.26,3.26,0,0,0-3.33,3.33,3.28,3.28,0,0,0,2,3.07M16.34,34.69a3.32,3.32,0,0,0-2.38,1A3.17,3.17,0,0,0,13,38a3,3,0,0,0,1,2.32,3.6,3.6,0,0,0,.9.66q4.8-1.71,2.87-6a3.39,3.39,0,0,0-1.39-.29m-10-9.32a4.41,4.41,0,0,0-1.63-.29,4.44,4.44,0,0,0-3.3,1.39A4.42,4.42,0,0,0,0,29.74a4.53,4.53,0,0,0,1.36,3.33,4.84,4.84,0,0,0,1.36,1A5.5,5.5,0,0,0,7,30.32a5.87,5.87,0,0,0-.66-4.95M65.69,1.51a1.43,1.43,0,0,0,.44,1c1.48,0,2.13-.77,1.94-2.26A1.4,1.4,0,0,0,67.2,0a1.44,1.44,0,0,0-1.07.43,1.54,1.54,0,0,0-.44,1.08M114.35,55.8a2.62,2.62,0,0,0-1.47-.44,2.56,2.56,0,0,0-1.89.79,2.52,2.52,0,0,0-.78,1.85,2.6,2.6,0,0,0,.78,1.91c.06.06.14.14.24.26s.18.16.26.14c2.6-.5,3.56-2,2.86-4.51M97.18,3.53a1.22,1.22,0,0,0-.32-.11,2.49,2.49,0,0,0-1.94.26,2.38,2.38,0,0,0-1.13,1.5A2.31,2.31,0,0,0,94,7.07a2.09,2.09,0,0,0,.72.81A2.84,2.84,0,0,0,97.55,6.2a2.45,2.45,0,0,0-.37-2.67M116,24a5.74,5.74,0,0,0-4.18,1.71,5.87,5.87,0,0,0,0,8.26,5.77,5.77,0,0,0,1.71,1.18c3.17-.69,5.09-2.24,5.77-4.63a7.11,7.11,0,0,0-1.16-6.11A5.59,5.59,0,0,0,116,24Z"/><path class="cls-1" d="M27.11,76.12q1.16,4.88-3.42,5.65A3.37,3.37,0,0,0,25,82a3.36,3.36,0,0,0,3.33-3.33,3.22,3.22,0,0,0-1-2.37,1.51,1.51,0,0,0-.23-.21M18.68,35.64a3.13,3.13,0,0,0-.95-.66q1.93,4.31-2.87,6a3.25,3.25,0,0,0,3.82-.66,3,3,0,0,0,1-2.32,3.18,3.18,0,0,0-1-2.38M8,26.47a4.36,4.36,0,0,0-1.7-1.1A5.87,5.87,0,0,1,7,30.32,5.5,5.5,0,0,1,2.72,34a4.55,4.55,0,0,0,1.94.41A4.6,4.6,0,0,0,8,33.07a4.54,4.54,0,0,0,1.37-3.33A4.43,4.43,0,0,0,8,26.47M68.24.43,68.07.29c.19,1.49-.46,2.24-1.94,2.26A1.39,1.39,0,0,0,67.2,3a1.38,1.38,0,0,0,1-.46,1.38,1.38,0,0,0,.46-1A1.48,1.48,0,0,0,68.24.43m46.55,55.72a2.05,2.05,0,0,0-.44-.35c.7,2.51-.26,4-2.86,4.51a2.5,2.5,0,0,0,1.39.38,2.67,2.67,0,0,0,1.91-.78,2.6,2.6,0,0,0,.78-1.91,2.52,2.52,0,0,0-.78-1.85M98.34,4.6a2.49,2.49,0,0,0-1.16-1.07,2.45,2.45,0,0,1,.37,2.67,2.84,2.84,0,0,1-2.81,1.68,2,2,0,0,0,.82.37A2.36,2.36,0,0,0,97.44,8a2.54,2.54,0,0,0,1.19-1.53,2.3,2.3,0,0,0-.29-1.86m21.72,21.11a5.31,5.31,0,0,0-1.94-1.3,7.11,7.11,0,0,1,1.16,6.11c-.68,2.39-2.6,3.94-5.77,4.63a5.82,5.82,0,0,0,2.47.52,5.53,5.53,0,0,0,4.08-1.7,5.77,5.77,0,0,0,0-8.26Z"/></g><g id="a_0_Layer2_0_FILL" data-name="a 0 Layer2 0 FILL"><path class="cls-3" d="M98.25,36.86s0,0,0,0l0-.09a35.46,35.46,0,0,0-7-12.42.24.24,0,0,1-.06.09,37.35,37.35,0,0,1-5.53,7l-.49.46a46.2,46.2,0,0,1-12.29,8.6q-13.41,6.26-32.06,8.83-5.76.81-11.41,1.13l-3.85.17h-.06l.23,2.29c.12,1,.28,2,.46,3s.47,1.92.73,2.84c.09.3.17.57.26.81l.2.67.12.26a1.6,1.6,0,0,0,.08.26l.06.11,4.26.35c1.52.08,3.31.12,5.36.12a115.63,115.63,0,0,0,25-2.75q14.64-3.28,24.28-9.94a41.15,41.15,0,0,0,3.36-2.54,41.24,41.24,0,0,0,5.91-6.06q1-1.27,2.4-3.24"/></g><path class="cls-2" d="M74.76,12.77h0c-.62-.21-1.25-.41-1.88-.58l-3.54-.75c-.94-.16-1.92-.27-2.92-.35a35,35,0,0,0-3.59-.17A36.25,36.25,0,0,0,36.41,21.8q-.85.86-1.65,1.71a28,28,0,0,0-4,5.45l-.09.14L37,29A70.46,70.46,0,0,0,53.87,25.6a54.21,54.21,0,0,0,15.5-8.2c1.16-.85,2.19-1.67,3.1-2.46s1.54-1.41,2.17-2l.12-.12M77.94,14a.36.36,0,0,1-.08.12C77,15,76.12,16,75.16,16.85s-2.12,2-3.3,2.93A47,47,0,0,1,57.5,28.14a112.25,112.25,0,0,1-19.85,5.19,57.57,57.57,0,0,1-9.47.75h-.05a.38.38,0,0,0-.09.15q-.43,1.13-.81,2.28c-.09.32-.18.64-.26,1s-.18.74-.26,1.1c-.22.92-.42,1.84-.61,2.75,0,.19-.06.38-.09.55a31.62,31.62,0,0,0-.4,3.68l0,.14q6.6.15,11.9-.2a85.29,85.29,0,0,0,21.55-4q13.91-4.65,22-11.32a39.68,39.68,0,0,0,3-2.75,48.12,48.12,0,0,0,4.69-5.73l.06-.09-.06-.06A37.54,37.54,0,0,0,77.94,14m16.4,53.86.17-.23a1.43,1.43,0,0,1,.15-.26,68,68,0,0,1-6.84,3.82A77.63,77.63,0,0,1,71.4,77.28,117.32,117.32,0,0,1,52,80.18l-8,.26,1.39.78,1.36.7A35.72,35.72,0,0,0,60,85.27c.88.06,1.75.09,2.64.09s1.57,0,2.35-.09a35.22,35.22,0,0,0,5.09-.6,34.44,34.44,0,0,0,11.45-4.4l5.06-3.65,1.19-1.05c.39-.36.78-.74,1.16-1.12a38.64,38.64,0,0,0,5.36-6.58M34.82,58.94c5.67,2.31,21.2-2.12,12-6.72C40,48.84,25.73,55.24,34.82,58.94ZM99.26,40.83a.09.09,0,0,1,0,.06,41.72,41.72,0,0,1-7.32,8.16,55.8,55.8,0,0,1-7.3,5.5A58,58,0,0,1,68.7,61.39,146.16,146.16,0,0,1,41.13,66c-1.41.1-2.79.17-4.14.23l-4.35.09H30.09a1.35,1.35,0,0,1,.15.26,38,38,0,0,0,5.3,7.07l.81.84c1,1,2,1.87,3,2.72h0a106.35,106.35,0,0,0,16.48-.93,126.34,126.34,0,0,0,14.69-2.66,94.58,94.58,0,0,0,19.06-7.16,79.3,79.3,0,0,0,7.73-4.31,1,1,0,0,0,.09-.17,37.38,37.38,0,0,0,2.52-13.82,38.69,38.69,0,0,0-.67-7.29"/><g id="_2_0_Layer0_0_FILL" data-name="   2 0 Layer0 0 FILL"><path class="cls-1" d="M100.39,54.59a10.55,10.55,0,0,0-1.08-.52q-.5-.16-1-.36l-1.55-.4a17.13,17.13,0,0,0-6-.23c-1.17.34-1.94.53-2.3.6a5.26,5.26,0,0,0-.87.19,16.74,16.74,0,0,0-6.26,4,.9.9,0,0,0-.26.06.85.85,0,0,0-.31.1,4.14,4.14,0,0,0-.86.83,4.09,4.09,0,0,0-.7,1,1.75,1.75,0,0,0,0,.81c-.36.6-.71,1.22-1.07,1.84A15.87,15.87,0,0,0,76.53,69a.3.3,0,0,0-.11.12,1,1,0,0,0-.14.18.65.65,0,0,0-.17.32A3,3,0,0,0,76,70.82,3.33,3.33,0,0,0,76.16,72c0,.1.09.2.15.32L77.86,76c.18.39.43.89.73,1.52l.69,1.32a13.73,13.73,0,0,0,2.44,2.93,16.36,16.36,0,0,0,10.5-2.12l-.06-.17a1.41,1.41,0,0,1,.21-1.11,1.52,1.52,0,0,1,1.11-.66,1.73,1.73,0,0,1,1.19.15,21,21,0,0,0,5-6.56c.29-.57.56-1.14.8-1.73a2.05,2.05,0,0,1-.41-.22,2.87,2.87,0,0,1-.6-3.78,2.74,2.74,0,0,1,1.68-1.28,2.53,2.53,0,0,1,.87,0,21.1,21.1,0,0,0,.27-2.52c.17-3.19-.39-5.56-1.68-7.09l-.21-.09m-12.1,1.76a1.93,1.93,0,0,1-.47,1.2,3.84,3.84,0,0,1-1.28.86,2,2,0,0,1-1.36.12.74.74,0,0,1-.59-.69A1.66,1.66,0,0,1,85,56.71a2.85,2.85,0,0,1,1.28-.93,2.18,2.18,0,0,1,1.33-.11.7.7,0,0,1,.65.68m-5.07,9.51a2,2,0,0,1,1.89.34,3,3,0,0,1,1.08,2,4.36,4.36,0,0,1-.5,2.5A3,3,0,0,1,84,72.19,1.9,1.9,0,0,1,82,72a2.85,2.85,0,0,1-1-2,4.09,4.09,0,0,1,.47-2.47A3.37,3.37,0,0,1,83.22,65.86Z"/><path class="cls-4" d="M85.11,66.2a2,2,0,0,0-1.89-.34,3.37,3.37,0,0,0-1.74,1.66A4.09,4.09,0,0,0,81,70a2.85,2.85,0,0,0,1,2,1.9,1.9,0,0,0,1.94.19,3,3,0,0,0,1.71-1.51,4.36,4.36,0,0,0,.5-2.5,3,3,0,0,0-1.08-2m2.71-8.65a1.93,1.93,0,0,0,.47-1.2.7.7,0,0,0-.65-.68,2.18,2.18,0,0,0-1.33.11,2.85,2.85,0,0,0-1.28.93,1.66,1.66,0,0,0-.44,1.13.74.74,0,0,0,.59.69,2,2,0,0,0,1.36-.12,3.84,3.84,0,0,0,1.28-.86m19.55,2.17a3.5,3.5,0,0,0-.78-1,.89.89,0,0,0-.72-.13,9.73,9.73,0,0,0-.69-.74,14.71,14.71,0,0,0-4.26-3,1.69,1.69,0,0,0-.32-.19c1.29,1.53,1.85,3.9,1.68,7.09a21.1,21.1,0,0,1-.27,2.52,2.53,2.53,0,0,0-.87,0,2.74,2.74,0,0,0-1.68,1.28,2.87,2.87,0,0,0,.6,3.78,2.05,2.05,0,0,0,.41.22c-.24.59-.51,1.16-.8,1.73a21,21,0,0,1-5,6.56,1.73,1.73,0,0,0-1.19-.15,1.52,1.52,0,0,0-1.11.66,1.41,1.41,0,0,0-.21,1.11l.06.17a16.36,16.36,0,0,1-10.5,2.12l.59.51a15.43,15.43,0,0,0,3.81,2.44,16.61,16.61,0,0,0,7.71,1.64l.21.26a1.52,1.52,0,0,0,.71.42,6.3,6.3,0,0,0,1.73-.12h0a6.65,6.65,0,0,0,1.67-.58,1.57,1.57,0,0,0,.43-.38,2.81,2.81,0,0,0,.33-.62c.67-.25,1.31-.52,1.92-.82A16.07,16.07,0,0,0,108,77.4a2.38,2.38,0,0,0,1.57-1,8.94,8.94,0,0,0,.88-2.13,7.81,7.81,0,0,0,.3-2.41,2.89,2.89,0,0,0-.81-1.63A15.58,15.58,0,0,0,109,64a20.93,20.93,0,0,0-1.16-2.61c0-.1.07-.19.09-.26s.06-.2,0-.23l-.06-.15A4.26,4.26,0,0,0,107.37,59.72Z"/></g><g id="star_0_Layer0_0_FILL" data-name="star 0 Layer0 0 FILL"><path class="cls-2" d="M283.69,24.74a.51.51,0,0,0,.23-.14.48.48,0,0,0,.12-.2.26.26,0,0,0,0-.21.18.18,0,0,0-.17-.11l-6.26-2-.83-6a.27.27,0,0,0-.12-.18.44.44,0,0,0-.22-.07.63.63,0,0,0-.25.07.3.3,0,0,0-.16.18l-3.72,6-7.23,2a.33.33,0,0,0-.22.11.38.38,0,0,0-.12.21.28.28,0,0,0,0,.2.29.29,0,0,0,.17.14l6.28,2,.91,6a.15.15,0,0,0,.07.17.38.38,0,0,0,.22.07.54.54,0,0,0,.26-.07.45.45,0,0,0,.19-.17l3.64-6Z"/></g><path class="cls-5" d="M65.66,12.25c-5.08.05-12.36,1.45-15.38,4.68-4.45,4.74-1.62,5.3,4.25,5.08,7.78-.29,23.19-9.73,11.13-9.76m-17.75,58c-.42,3.79,8.37,3.58,8.92.51.74-4.11-8.51-4.35-8.89-.54C47.94,70.21,47.91,70.2,47.91,70.22Z"/><path class="cls-2" d="M33.37,10.39l-.09,0A25.19,25.19,0,0,0,23,17.91a42.59,42.59,0,0,0-5.62,8.14,40.83,40.83,0,0,1,5.1-9.68A27.52,27.52,0,0,1,32,8.16,3.2,3.2,0,0,1,33.37,10.39Z"/><path class="cls-1" d="M30.93,6.16l-1.1.58L32,8.16a2.43,2.43,0,0,1,.57.61L31.13,10l.06.14L33,9.47a2.92,2.92,0,0,1,.34.92l-.26,3,1.36-.71,1.14-2.57a5.12,5.12,0,0,0-1.78-3.45l-2.9-.49"/><path class="cls-1" d="M36.21,9.92A14,14,0,0,0,39.88,8.3a8.94,8.94,0,0,0,3.36-3.18,7.74,7.74,0,0,0-4.51-.32,11.08,11.08,0,0,0-4.35,1.59,6.33,6.33,0,0,1,1.83,3.53"/><path class="cls-4" d="M40.39,6.75c.92-1.38-1.42-1.68-2.09-.64S39.2,7.59,40,7A2,2,0,0,0,40.39,6.75Z"/></g></g></svg>